<svg xmlns="http://www.w3.org/2000/svg" width="198.123" height="300.969" viewBox="0 0 100 250.185" class="looka-1j8o68f"><path d="M14.677 131.226c-9.74 4.45-15.632-.841-14.55-9.619.361-2.886.962-6.132 2.165-9.018 8.657-20.681 19.84-39.68 35.832-55.551 3.246-3.247 6.853-6.133 11.182-7.936 7.215-2.886 11.182 0 9.98 7.455-1.323 8.657-6.373 15.51-11.904 21.763-10.821 12.024-23.567 21.523-38.236 28.257-1.443.721-2.285 1.563-2.886 2.886-1.563 3.607-2.886 7.334-3.487 11.302-1.082 8.297 3.487 11.784 11.062 8.538 7.455-3.247 13.467-8.658 19.6-13.588l7.334-6.012c.36-.24 1.323-.601 1.563-.36.962.721.24 1.442-.36 1.923-9.139 6.974-16.594 15.03-27.295 19.96zm-4.089-27.415c11.423-5.17 21.043-12.865 30.18-21.162 6.975-6.493 12.746-14.309 15.873-23.567.962-2.525 1.683-5.772-.601-7.936-2.646-2.405-5.17.24-7.576 1.082-1.322.481-2.525 1.443-3.607 2.285-15.511 13.346-26.934 29.94-35.35 48.457-.602.962.12 1.322 1.081.841zm4.654 77.075c-2.165-1.082-3.127-3.006-2.766-5.41.481-3.368 1.684-6.614 3.006-9.62 3.728-7.936 8.177-15.631 13.708-22.485 6.372-8.177 10.821-17.074 13.587-26.934.962-3.127 2.044-9.5 4.81-8.898 1.322.36-1.804 6.373-2.405 9.62-.601 2.284-1.684 5.29-1.203 5.891 1.203.24 3.127-2.285 4.69-3.727 3.847-3.487 7.214-7.576 11.663-10.341 1.563-.962 3.126-1.924 4.81-2.525 5.17-1.804 7.575 0 7.214 6.373 0 1.923-.962 4.208-2.164 6.613-.601 1.082-2.285 2.525-1.443 3.607 1.202 1.443 3.126-.12 4.449-.48 8.898-2.526 14.55-6.253 22.365-11.063.962-.601 3.487-3.126 4.328-1.804.602.842-1.442 2.165-2.525 2.886-7.935 5.05-13.707 9.018-22.845 11.663-5.652 1.564-11.303 3.127-15.992 6.974-2.526 1.684-5.892 3.006-8.297 1.083-.962-.842-1.683-2.165-.962-3.848 1.323-3.126 4.088-3.126 6.974-3.247 8.176-.36 13.948-6.132 13.948-13.827 0-3.006-1.082-4.089-4.088-2.766-.842.36-1.924.601-2.646 1.202-10.821 8.177-21.763 16.353-26.092 30.181-3.126 9.86-7.094 19.359-11.062 28.978-1.563 3.607-3.367 7.335-6.373 10.1-1.202 1.203-2.645 2.766-4.69 1.804zm37.876-49.78c2.164-.36 4.208-1.322 5.17-3.246.36-.602-1.443-.481-2.164-.602-2.165-.12-4.088.12-4.57 2.526-.12.841.722 1.442 1.564 1.322zm-37.275 47.375c1.443.481 2.285-.601 3.006-1.563 1.082-1.323 2.164-2.886 3.006-4.449 4.449-9.138 7.936-18.637 11.303-28.257.24-.721.721-1.442.12-2.164-.601.481-1.443.842-1.924 1.443-5.531 8.056-11.062 16.112-14.79 25.25-.721 2.045-1.563 4.089-2.164 5.532 0 2.044-.24 3.607 1.443 4.208z" fill="#8712f4"/></svg>